# xmcd
#
# Track frame offsets: 
#        150
#        18677
#        33697
#        46062
#        65377
#        77942
#        91620
#        106087
#        124277
#        137402
#        155357
#        176287
#        200682
#        226015
#        245972
#        275965
#
# Disc length: 3890 seconds
#
# Revision: 18
# Processed by: cddbd v1.5.2PL0 Copyright (c) Steve Scherf et al.
# Submitted via: ExactAudioCopy v1.3
#
DISCID=d80f3010
DTITLE=Various Artist - STUDIO GHIBLI SONGS 
DYEAR=1998
DGENRE=General Soundtrack
TTITLE0=Nausicaa Of The Valley Of The Wind
TTITLE1=Carrying You
TTITLE2=Sanpo (Walk)
TTITLE3=Tonari No Totoro (My Neighbor Totoro)
TTITLE4=Hanyu No Yado (Lodging Of Hanyu)
TTITLE5=Message Of Rouge
TTITLE6=Yasashisani Tsutsumaretara (If I Would Be Wrapped By Tendernes
TTITLE6=s)
TTITLE7=Ai Ea Hana, Kimi Wa So No Tane (Love Is A Flower, You Are The 
TTITLE7=Seed Of It.)
TTITLE8=When A Cherry Grows
TTITLE9=Tokiniwa Mukashi No Hanashi Wo (Tell Mesometimes An Old Story)
TTITLE10=If I Become The Sea.....
TTITLE11=This Town In Asis
TTITLE12=Whenever Someone See
TTITLE13=Country Road
TTITLE14=On Your Mark
TTITLE15=Princess Mononoke
EXTD=YEAR: 1998
EXTT0=
EXTT1=
EXTT2=
EXTT3=
EXTT4=
EXTT5=
EXTT6=
EXTT7=
EXTT8=
EXTT9=
EXTT10=
EXTT11=
EXTT12=
EXTT13=
EXTT14=
EXTT15=
PLAYORDER=
